<svg preserveAspectRatio="none" overflow="visible" style="display: block;" width="95" height="102.935" viewBox="0 0 95 102.935" fill="none" xmlns="http://www.w3.org/2000/svg">
<g id="Group">
<path id="Vector" opacity="0.72" d="M2.18396 70.3218L30.5748 2.03831L57.8736 70.3218H2.18396Z" fill="#E8E5E0"/>
<path id="Vector_2" d="M58.9655 81.1249C78.8668 81.1249 95 66.0673 95 47.4927C95 28.9182 78.8668 13.8605 58.9655 13.8605C39.0642 13.8605 22.931 28.9182 22.931 47.4927C22.931 66.0673 39.0642 81.1249 58.9655 81.1249Z" fill="#6F7278"/>
<path id="Vector_3" opacity="0.92" d="M21.8391 102.935C33.9005 102.935 43.6782 93.809 43.6782 82.5517C43.6782 71.2944 33.9005 62.1686 21.8391 62.1686C9.77769 62.1686 0 71.2944 0 82.5517C0 93.809 9.77769 102.935 21.8391 102.935Z" fill="#DDBEAE"/>
<path id="Vector_4" d="M7.64363 68.4873C9.81468 68.4873 11.5747 66.8447 11.5747 64.8184C11.5747 62.7921 9.81468 61.1494 7.64363 61.1494C5.47258 61.1494 3.7126 62.7921 3.7126 64.8184C3.7126 66.8447 5.47258 68.4873 7.64363 68.4873Z" fill="#D8A93A"/>
<path id="Vector_5" d="M17.9081 75.8253C20.5616 75.8253 22.7127 73.8176 22.7127 71.341C22.7127 68.8644 20.5616 66.8567 17.9081 66.8567C15.2546 66.8567 13.1035 68.8644 13.1035 71.341C13.1035 73.8176 15.2546 75.8253 17.9081 75.8253Z" fill="#D8A93A"/>
<path id="Vector_6" d="M22.2758 61.5571C23.7232 61.5571 24.8965 60.462 24.8965 59.1111C24.8965 57.7603 23.7232 56.6652 22.2758 56.6652C20.8285 56.6652 19.6551 57.7603 19.6551 59.1111C19.6551 60.462 20.8285 61.5571 22.2758 61.5571Z" fill="#D8A93A"/>
<path id="Vector_7" d="M84.7356 0V95.8007" stroke="#7E7E7E"/>
</g>
</svg>
