<svg preserveAspectRatio="none" overflow="visible" style="display: block;" width="24" height="24" viewBox="0 0 24 24" fill="none" xmlns="http://www.w3.org/2000/svg">
<g id="Group 31">
<circle id="Ellipse 17" cx="12" cy="12" r="12" fill="#F0ECE7"/>
<g id="Group">
<path id="Vector" d="M6.33003 14.6756L5.17678 14.4833C4.94318 13.4691 4.94107 12.4153 5.1706 11.4002C5.40014 10.3851 5.85543 9.43473 6.50265 8.6197C7.14988 7.80468 7.9724 7.14594 8.90914 6.69242C9.84588 6.23889 10.8728 6.00223 11.9135 6.00002C12.9543 5.9978 13.9821 6.23009 14.9208 6.67962C15.8595 7.12916 16.6848 7.78439 17.3355 8.59665C17.9861 9.40891 18.4455 10.3573 18.6793 11.3715C18.9132 12.3856 18.9156 13.4394 18.6863 14.4546L17.5263 14.6481" stroke="black" stroke-width="0.25" stroke-linecap="round" stroke-linejoin="round"/>
<g id="Group 30">
<path id="Vector_2" d="M14.178 11.9313C14.178 11.8815 14.1978 11.8339 14.2329 11.7987C14.2681 11.7635 14.3158 11.7438 14.3655 11.7438H15.4905C15.5403 11.7438 15.588 11.7635 15.6231 11.7987C15.6583 11.8339 15.678 11.8815 15.678 11.9313C15.678 12.0059 15.6976 12.0792 15.7349 12.1439C15.7722 12.2085 15.8259 12.2622 15.8905 12.2995L17.026 12.955C17.178 13.0428 17.3043 13.169 17.3921 13.321C17.4798 13.4731 17.526 13.6455 17.526 13.821V15.6665C17.526 15.8421 17.4798 16.0145 17.3921 16.1665C17.3043 16.3185 17.178 16.4448 17.026 16.5325L15.8905 17.188C15.8259 17.2253 15.7722 17.279 15.7349 17.3437C15.6976 17.4083 15.678 17.4816 15.678 17.5563C15.678 17.606 15.6583 17.6537 15.6231 17.6889C15.588 17.724 15.5403 17.7438 15.4905 17.7438H14.3655C14.3158 17.7438 14.2681 17.724 14.2329 17.6889C14.1978 17.6537 14.178 17.606 14.178 17.5563V11.9313ZM9.67803 17.5563C9.67803 17.606 9.65828 17.6537 9.62312 17.6889C9.58795 17.724 9.54026 17.7438 9.49053 17.7438H8.36553C8.3158 17.7438 8.26811 17.724 8.23295 17.6889C8.19779 17.6537 8.17803 17.606 8.17803 17.5563C8.17807 17.4816 8.15844 17.4083 8.12114 17.3437C8.08384 17.279 8.03017 17.2253 7.96553 17.188L6.83003 16.5325C6.67802 16.4448 6.55178 16.3185 6.46401 16.1665C6.37625 16.0145 6.33004 15.8421 6.33003 15.6665V13.821C6.33004 13.6455 6.37625 13.4731 6.46401 13.321C6.55178 13.169 6.67802 13.0428 6.83003 12.955L7.96553 12.2995C8.03017 12.2622 8.08384 12.2085 8.12114 12.1439C8.15844 12.0792 8.17807 12.0059 8.17803 11.9313C8.17803 11.8815 8.19779 11.8339 8.23295 11.7987C8.26811 11.7635 8.3158 11.7438 8.36553 11.7438H9.49053C9.54026 11.7438 9.58795 11.7635 9.62312 11.7987C9.65828 11.8339 9.67803 11.8815 9.67803 11.9313V17.5563Z" stroke="black" stroke-width="0.25" stroke-linecap="round" stroke-linejoin="round"/>
</g>
</g>
</g>
</svg>
